<svg width="15" height="15" viewBox="0 0 15 15" fill="none" xmlns="http://www.w3.org/2000/svg">
<path d="M11.1212 6.23073C10.815 6.23073 10.5729 5.98154 10.5729 5.68247C10.5729 5.41904 10.3095 4.87081 9.86805 4.39377C9.43374 3.93098 8.95671 3.66043 8.558 3.66043C8.25184 3.66043 8.00977 3.41123 8.00977 3.1122C8.00977 2.81316 8.25896 2.56396 8.558 2.56396C9.26999 2.56396 10.0176 2.94844 10.6726 3.63907C11.2849 4.28698 11.6765 5.09152 11.6765 5.67535C11.6765 5.98154 11.4273 6.23073 11.1212 6.23073Z" fill="black"/>
<path d="M13.6911 6.22965C13.385 6.22965 13.1429 5.98046 13.1429 5.68142C13.1429 3.15386 11.0853 1.10334 8.56483 1.10334C8.25868 1.10334 8.0166 0.854142 8.0166 0.555107C8.0166 0.256072 8.25868 -0.000244141 8.55771 -0.000244141C11.6905 -0.000244141 14.2394 2.54867 14.2394 5.68142C14.2394 5.98046 13.9902 6.22965 13.6911 6.22965Z" fill="black"/>
<path d="M6.44349 9.22001L5.12632 10.5372C4.84864 10.8149 4.40721 10.8149 4.12241 10.5443C4.04409 10.466 3.96578 10.3948 3.88746 10.3165C3.15411 9.576 2.49196 8.79993 1.90101 7.98827C1.31718 7.1766 0.847266 6.36493 0.505512 5.56039C0.170877 4.74872 0 3.97265 0 3.23218C0 2.74803 0.0854385 2.28524 0.256316 1.85805C0.427193 1.42373 0.697749 1.02502 1.0751 0.669025C1.53077 0.220472 2.02917 -0.000244141 2.55604 -0.000244141C2.75539 -0.000244141 2.95475 0.0424752 3.13275 0.127914C3.31787 0.213352 3.48162 0.34151 3.60978 0.526627L5.26159 2.85483C5.38975 3.03283 5.48231 3.19658 5.54639 3.35322C5.61047 3.50274 5.64607 3.65226 5.64607 3.78753C5.64607 3.95841 5.59623 4.12929 5.49655 4.29305C5.40399 4.4568 5.26871 4.62768 5.09784 4.79856L4.55673 5.36103C4.47841 5.43935 4.44281 5.53191 4.44281 5.64582C4.44281 5.70278 4.44993 5.75262 4.46417 5.80958C4.48553 5.86654 4.50689 5.90926 4.52113 5.95198C4.64928 6.18693 4.87 6.49309 5.18327 6.86332C5.50367 7.23356 5.84542 7.61091 6.21566 7.98827C6.28686 8.05946 6.36518 8.13066 6.43637 8.20186C6.72117 8.47954 6.72829 8.93521 6.44349 9.22001Z" fill="black"/>
<path d="M14.2184 11.6257C14.2184 11.8251 14.1828 12.0316 14.1116 12.2309C14.0903 12.2879 14.0689 12.3448 14.0404 12.4018C13.9194 12.6581 13.7627 12.9002 13.5563 13.128C13.2074 13.5125 12.8229 13.7902 12.3886 13.9682C12.3815 13.9682 12.3744 13.9753 12.3673 13.9753C11.9472 14.1462 11.4915 14.2387 11.0002 14.2387C10.274 14.2387 9.49794 14.0678 8.67915 13.719C7.86037 13.3701 7.04158 12.9002 6.22991 12.3092C5.95224 12.1028 5.67457 11.8963 5.41113 11.6756L7.73933 9.34736C7.93868 9.49687 8.11668 9.61079 8.2662 9.68911C8.3018 9.70335 8.34452 9.72471 8.39436 9.74607C8.45132 9.76743 8.50827 9.77455 8.57235 9.77455C8.69339 9.77455 8.78595 9.73183 8.86427 9.65351L9.40538 9.11952C9.58338 8.94152 9.75425 8.80625 9.91801 8.72081C10.0818 8.62113 10.2455 8.57129 10.4235 8.57129C10.5588 8.57129 10.7012 8.59977 10.8578 8.66385C11.0145 8.72793 11.1782 8.82049 11.3562 8.94152L13.7129 10.6147C13.898 10.7429 14.0262 10.8924 14.1045 11.0704C14.1757 11.2484 14.2184 11.4264 14.2184 11.6257Z" fill="black"/>
</svg>
