<svg width="18" height="17" viewBox="0 0 18 17" fill="none" xmlns="http://www.w3.org/2000/svg">
<path d="M15.8229 5.33716V12.0415C15.8229 12.5836 15.6159 13.1051 15.244 13.4995C14.8722 13.8938 14.3637 14.1312 13.8226 14.163L13.6979 14.1665H3.78125C3.23923 14.1666 2.71768 13.9595 2.32332 13.5876C1.92895 13.2158 1.69159 12.7073 1.65979 12.1662L1.65625 12.0415V5.33716L8.34646 9.79753L8.42862 9.84428C8.52546 9.8916 8.63181 9.91619 8.73958 9.91619C8.84736 9.91619 8.95371 9.8916 9.05054 9.84428L9.13271 9.79753L15.8229 5.33716Z" fill="black"/>
<path d="M13.6972 2.8335C14.4622 2.8335 15.133 3.23725 15.507 3.84429L8.73883 8.35637L1.9707 3.84429C2.1483 3.55583 2.39231 3.31403 2.68237 3.13906C2.97243 2.96409 3.30013 2.86102 3.63812 2.83845L3.78049 2.8335H13.6972Z" fill="black"/>
</svg>
