<svg width="14" height="16" viewBox="0 0 14 16" fill="none" xmlns="http://www.w3.org/2000/svg">
<path d="M13.6585 5.22927C12.839 1.62341 9.69366 0 6.93074 0C6.93074 0 6.93074 0 6.92293 0C4.16779 0 1.01462 1.61561 0.195105 5.22146C-0.718066 9.24878 1.74828 12.6595 3.98047 14.8059C4.80779 15.6019 5.86927 16 6.93074 16C7.9922 16 9.05367 15.6019 9.87318 14.8059C12.1054 12.6595 14.5717 9.25659 13.6585 5.22927ZM6.93074 9.13951C5.57269 9.13951 4.47218 8.03902 4.47218 6.68098C4.47218 5.32293 5.57269 4.22244 6.93074 4.22244C8.28879 4.22244 9.38928 5.32293 9.38928 6.68098C9.38928 8.03902 8.28879 9.13951 6.93074 9.13951Z" fill="black"/>
</svg>
