<?xml version="1.0" standalone="no"?><!DOCTYPE svg PUBLIC "-//W3C//DTD SVG 1.1//EN" "http://www.w3.org/Graphics/SVG/1.1/DTD/svg11.dtd"><svg t="1691474653551" class="icon" viewBox="0 0 1024 1024" version="1.1" xmlns="http://www.w3.org/2000/svg" p-id="1753" xmlns:xlink="http://www.w3.org/1999/xlink" width="200" height="200"><path d="M820.23413084 363.86792604c-27.96560657 0-51.1324875 22.14243382-51.1324875 49.0296752V603.57055654c0 26.88724139 22.37608005 49.04764764 51.1324875 49.04764764 27.94763337 0 51.11451429-22.16040701 51.11451431-49.06562008V412.91557366c-0.79080087-26.88724139-23.16688094-49.02967521-51.11451431-49.02967442z m-616.68116153 0C175.62330836 363.86792604 152.43845423 386.01035985 152.43845423 412.87962804V603.57055654c0 26.88724139 22.35810685 49.04764764 51.11451506 49.04764764 28.75640745 0 51.1324875-22.16040701 51.13248675-49.06562008V412.91557366c0-26.88724139-22.37608005-49.02967521-51.13248675-49.02967442z m82.27927078 1.58160253v348.85117026c0 20.56083127 17.57735442 37.95845829 39.93546128 37.95845829h45.54296098v106.00330713c0 26.90521383 22.35810685 49.04764764 51.1145143 49.04764765 27.96560657 0 51.1324875-22.14243382 51.13248751-49.04764765v-106.00330713h79.87092175v106.00330713c0 26.90521383 22.37608005 49.04764764 51.13248749 49.04764765C632.49073436 907.3101119 655.67558772 885.16767808 655.67558772 858.26246427v-106.00330714h45.52498778c22.37608005 0 39.9534337-16.60682535 39.95343447-37.95845831V365.43155613H285.83224009zM619.73007882 185.07496172L662.0738891 128.11930146c1.58160253-3.95400592 1.58160253-8.69881351-2.40834983-10.28041526-3.19915069-2.3724034-7.97990313-0.79080087-10.38825216 2.3724034l-43.13461117 59.32806367A280.51875636 280.51875636 0 0 0 511.89354969 162.93252791c-33.5551331 0-65.49271802 5.53560846-94.24912626 16.60682536l-43.13461117-59.31009123c-2.40834905-3.95400592-7.18910225-4.76278001-10.38825216-2.39037584a7.45869335 7.45869335 0 0 0-1.61754817 10.28041526l42.34381031 56.97363269c-66.28351969 29.25964479-113.40808241 84.63370253-119.01558215 149.49737466h454.53096823c-7.18910225-64.88164455-53.54083654-120.2377291-120.63312953-149.51534709zM416.04484848 275.26224514c-14.37820372 0-24.76645588-10.28041603-24.76645589-23.72403635 0-13.4615935 11.17905383-23.72403634 24.76645589-23.72403633 14.37820372 0 24.74848345 10.26244283 24.74848345 23.72403633 0 13.44362031-11.17905383 23.72403634-24.74848345 23.72403635z m194.89655311 0c-14.37820372 0-24.76645588-10.28041603-24.76645589-23.72403635 0-13.4615935 11.19702623-23.72403634 24.76645588-23.72403633 14.37820372 0 24.76645588 10.26244283 24.76645589 23.72403633 0 13.44362031-11.17905383 23.72403634-24.76645589 23.72403635z" fill="#ffffff" p-id="1754"></path></svg>