<?xml version="1.0" standalone="no"?><!DOCTYPE svg PUBLIC "-//W3C//DTD SVG 1.1//EN" "http://www.w3.org/Graphics/SVG/1.1/DTD/svg11.dtd"><svg t="1691474578144" class="icon" viewBox="0 0 1024 1024" version="1.1" xmlns="http://www.w3.org/2000/svg" p-id="1596" xmlns:xlink="http://www.w3.org/1999/xlink" width="200" height="200"><path d="M201.24940906 507.65702469c148.76154-61.27077844 220.76839875-28.56943031 285.25299844 15.20473125l-74.47526531 255.97940625c-64.70524969-43.52952656-135.07833655-79.34588343-284.43467344-17.60310469l72.79064812-253.207845L201.24940906 507.65702469z" fill="#ffffff" p-id="1597"></path><path d="M525.49996719 547.61393375c64.67742844 43.49786812 130.81786594 75.41159063 282.80281969 23.42347875l-70.93238813 246.79075594c-149.19516563 61.71783562-220.82020406 26.79847031-285.41225062-16.99583719L525.49996719 547.61393375z" fill="#ffffff" p-id="1598"></path><path d="M498.89624469 476.71608219c-38.91793406-26.22190125-80.81081063-50.73136406-140.31350719-51.17074594-39.24795001-0.30219469-85.97786719 10.86367406-145.32323063 35.37313689l73.51015969-254.76774752c149.24888906-61.70824219 220.96986281-26.73803156 285.6309825 16.99583719L498.89624469 476.71608219z" fill="#ffffff" p-id="1599"></path><path d="M896.40657219 266.37197563c-149.05126311 61.59407906-220.6820578 26.95676345-285.20119313-16.51232438l-73.52646937 254.98743844c64.46925001 43.71372187 142.38378375 79.59051751 285.29616937 15.64219501L896.40657219 266.37197563z" fill="#ffffff" p-id="1600"></path></svg>